<svg xmlns="http://www.w3.org/2000/svg" width="256" height="256" viewBox="0 0 100 100"><rect width="100" height="100" rx="50" fill="#15181e"></rect><path fill="#3ccadd" d="M30.64 38.93L17.57 69.22L7.42 69.22L25.40 30.78L33.39 30.78L51.43 69.22L41.44 69.22L28.43 38.93L30.64 38.93ZM42.41 61.29L15.74 61.29L19.68 53.67L38.52 53.67L42.41 61.29ZM62.61 69.22L53.81 69.22L53.81 30.78L61.74 30.78L74.92 60.85L71.57 60.85L84.69 30.78L92.58 30.78L92.58 69.22L83.72 69.22L83.67 46.11L85.72 46.71L76.38 69.22L69.95 69.22L60.45 46.71L62.61 46.11L62.61 69.22Z"></path></svg>