<?xml version="1.0" standalone="no"?>
<!DOCTYPE svg PUBLIC "-//W3C//DTD SVG 20010904//EN"
 "http://www.w3.org/TR/2001/REC-SVG-20010904/DTD/svg10.dtd">
<svg version="1.0" xmlns="http://www.w3.org/2000/svg"
 width="600.000000pt" height="600.000000pt" viewBox="0 0 600.000000 600.000000"
 preserveAspectRatio="xMidYMid meet">
<metadata>
Created by potrace 1.14, written by Peter Selinger 2001-2017
</metadata>
<g transform="translate(0.000000,600.000000) scale(0.100000,-0.100000)"
fill="#000000" stroke="none">
<path d="M1271 4221 c-5 -9 -73 -153 -151 -321 -79 -168 -161 -343 -182 -390
-22 -47 -55 -116 -73 -155 -18 -38 -53 -113 -77 -165 -25 -52 -57 -120 -71
-150 -14 -30 -45 -98 -70 -150 -24 -52 -54 -116 -66 -142 -11 -26 -55 -117
-96 -203 -41 -86 -75 -158 -75 -160 0 -1 -27 -60 -60 -129 -33 -70 -60 -128
-60 -131 0 -2 -36 -78 -80 -169 -44 -92 -80 -171 -80 -176 0 -7 113 -9 321 -8
l322 3 34 80 c19 44 45 103 57 130 12 28 45 103 72 167 l49 118 558 -3 558 -2
107 -245 107 -245 323 -3 c177 -1 322 -1 322 2 0 3 -115 251 -205 441 -26 55
-62 133 -81 173 -83 177 -105 224 -159 337 -31 66 -68 145 -82 175 -14 30 -46
98 -71 150 -24 52 -59 127 -77 165 -18 39 -56 120 -85 180 -29 61 -67 142 -85
180 -18 39 -55 117 -82 175 -28 58 -64 134 -81 170 -16 36 -57 122 -90 191
l-59 126 -262 0 c-229 0 -263 -2 -270 -16z m363 -838 c44 -104 87 -206 97
-228 10 -22 36 -85 59 -140 22 -55 45 -109 50 -120 5 -11 20 -46 34 -77 l25
-58 -350 0 c-192 0 -349 2 -349 4 0 5 154 373 181 433 10 23 19 45 19 48 0 3
9 27 21 53 30 68 42 97 80 189 19 46 39 83 44 83 6 0 46 -84 89 -187z"/>
<path d="M3130 3004 l0 -1234 290 0 290 0 0 577 c0 317 4 573 8 568 5 -6 27
-50 49 -100 23 -49 60 -130 83 -180 23 -49 55 -117 70 -150 16 -33 50 -107 77
-165 27 -58 96 -205 153 -327 l103 -223 182 0 182 0 43 93 c24 50 70 151 102
222 33 72 78 168 100 215 22 47 53 112 68 145 49 107 131 285 209 449 l27 60
0 -590 0 -589 292 -3 292 -2 0 1233 0 1234 -282 -1 -282 -1 -370 -832 c-204
-458 -373 -833 -376 -833 -3 0 -51 102 -107 228 -153 343 -493 1103 -509 1137
-7 17 -40 91 -73 165 l-59 135 -281 1 -281 1 0 -1233z"/>
</g>
</svg>
